# xmcd
# Track frame offsets:
# 150
# 16013
# 31032
# 51578
# 71699
# 92120
# 111830
# 128772
# 147193
# 168481
# 188077
# 208786
#
# Disc length: 3054 seconds
# Revision: 0
# Processed by: cddbd v1.4PL0 Copyright (c) Steve Scherf et al.
# Submitted via: VisiTrax 2.9.5.181 - For more info visit www.synapsa.com
#
DISCID=a50bec0c
DTITLE=Ilse DeLange - Clean Up (Limited Edition)
DYEAR=2003
DGENRE=Country
TTITLE0=All Alone
TTITLE1=Thank You
TTITLE2=Déjà Vu
TTITLE3=New Beginning
TTITLE4=Heavenless
TTITLE5=Follow
TTITLE6=Clean Up
TTITLE7=Machine People
TTITLE8=Not Waiting For You
TTITLE9=No Reason to Be Shy
TTITLE10=Nobody Really Knows
TTITLE11=Here I Am
EXTD=This album contains a bonus-DVD with contents:\nThe Making Of Clean U
EXTD=p - Before You Let Me Go: Kane Featuring Ilse DeLange Live In Rotterda
EXTD=m - Photo Gallery\n\nRemark:\nExtra Downloadable 13th track with uniqu
EXTD=e CD-accesscode
EXTT0=
EXTT1=
EXTT2=
EXTT3=
EXTT4=
EXTT5=
EXTT6=
EXTT7=
EXTT8=
EXTT9=
EXTT10=
EXTT11=
PLAYORDER=
